# xmcd
#
# Track frame offsets:
#	150
#	16237
#	32373
#	47837
#	59190
#	71811
#	94983
#	116392
#	130396
#	141153
#	158713
#	176219
#	197367
#	208362
#	224163
#	246721
#	261468
#	278329
#	287815
#	301446
#	316850
#	327357
#
# Disc length: 4496 seconds
#
# Revision: 0
# Processed by: cddbd v1.5.2PL0 Copyright (c) Steve Scherf et al.
# Submitted via: EasyCDDAExtractor 2010.6.0.0
#
DISCID=64118e16
DTITLE=Various Artist - 한국인이 좋아하는 가곡모음 44곡
DYEAR=1900
DGENRE=
TTITLE0=김학남 - 보리밭
TTITLE1=김태현 - 황혼의 노래
TTITLE2=김진원 - 떠나가는 배
TTITLE3=이인영 - 그 집 앞
TTITLE4=김성길 - 장안사
TTITLE5=신영조 - 그리운 금강산
TTITLE6=백남옥 - 그대 있음에
TTITLE7=김희정 - 봉숭아
TTITLE8=서병선 - 옛동산에 올라
TTITLE9=송광선 - 수선화
TTITLE10=백남옥 - 비목
TTITLE11=박성원 - 청산에 살리라
TTITLE12=박인수 - 산유화
TTITLE13=김영자 - 못잊어
TTITLE14=김신환 - 선구자
TTITLE15=박인수 - 사공의 노래
TTITLE16=이연화 - 어머님의 마음
TTITLE17=곽신형 - 코스모스를 노래함
TTITLE18=김화용 - 산들바람
TTITLE19=채리숙 - 그리워
TTITLE20=박순복 - 봄이 오면
TTITLE21=김신환 - 나물 캐는 처녀
EXTD=
EXTT0=
EXTT1=
EXTT2=
EXTT3=
EXTT4=
EXTT5=
EXTT6=
EXTT7=
EXTT8=
EXTT9=
EXTT10=
EXTT11=
EXTT12=
EXTT13=
EXTT14=
EXTT15=
EXTT16=
EXTT17=
EXTT18=
EXTT19=
EXTT20=
EXTT21=
PLAYORDER=
